<svg width="183" height="39" viewBox="0 0 183 39" fill="none" xmlns="http://www.w3.org/2000/svg">
<path d="M0.600586 4.757C0.616586 4.497 0.711585 4.263 0.887585 4.056C0.973185 3.95452 1.08089 3.87387 1.20229 3.82016C1.32379 3.76645 1.45588 3.74109 1.58858 3.746H8.41458C8.64458 3.746 8.88159 3.842 9.12659 4.033C9.24139 4.11542 9.33469 4.2242 9.39879 4.35018C9.46279 4.47616 9.49568 4.61568 9.49458 4.757V15.65H20.9156V4.757C20.9156 4.481 21.0116 4.244 21.2026 4.045C21.3946 3.845 21.6426 3.745 21.9496 3.745H28.6836C28.9896 3.745 29.2576 3.822 29.4876 3.975C29.7176 4.129 29.8326 4.374 29.8326 4.711V36.861C29.8326 37.198 29.7326 37.451 29.5326 37.619C29.3346 37.788 29.0736 37.872 28.7526 37.872H21.9496C21.6436 37.872 21.3946 37.788 21.2026 37.619C21.0116 37.451 20.9156 37.199 20.9156 36.861V23.808H9.49458V36.861C9.49458 37.183 9.39059 37.431 9.18459 37.608C8.97759 37.784 8.69758 37.872 8.34458 37.872H1.58858C0.945585 37.872 0.616586 37.573 0.600586 36.976V4.757ZM63.476 37.482C63.277 37.65 63.066 37.757 62.844 37.803C62.636 37.8477 62.425 37.8712 62.213 37.873H58.743C58.467 37.873 58.229 37.823 58.03 37.723C57.83 37.623 57.662 37.489 57.524 37.321C57.382 37.1465 57.267 36.9529 57.18 36.746C57.087 36.5298 57.01 36.3073 56.95 36.08L56.238 33.138C56.008 33.613 55.675 34.153 55.238 34.758C54.765 35.4 54.204 35.9723 53.572 36.458C52.898 36.988 52.093 37.432 51.159 37.792C50.224 38.152 49.152 38.332 47.941 38.332C46.195 38.332 44.609 37.995 43.184 37.321C41.7885 36.6692 40.5472 35.7292 39.5416 34.563C38.5386 33.399 37.7606 32.039 37.2096 30.483C36.6576 28.929 36.3816 27.27 36.3816 25.509V10.456C36.3816 9.874 36.5086 9.434 36.7616 9.135C37.0136 8.836 37.4156 8.687 37.9676 8.687H43.276C43.936 8.687 44.387 8.797 44.632 9.02C44.877 9.242 45 9.675 45 10.318V25.278C45 25.938 45.15 26.562 45.448 27.152C45.747 27.742 46.141 28.262 46.632 28.714C47.122 29.166 47.677 29.523 48.298 29.783C48.918 30.043 49.55 30.173 50.194 30.173C50.745 30.173 51.316 30.043 51.906 29.783C52.499 29.5197 53.05 29.1669 53.537 28.737C54.035 28.301 54.445 27.787 54.767 27.197C55.089 26.607 55.249 25.983 55.249 25.325V10.387C55.249 10.127 55.299 9.867 55.399 9.606C55.499 9.346 55.648 9.146 55.847 9.008C56.046 8.886 56.234 8.802 56.41 8.756C56.586 8.71 56.79 8.686 57.019 8.686H62.213C62.871 8.686 63.346 8.848 63.637 9.169C63.928 9.491 64.074 9.92 64.074 10.456V36.172C64.074 36.462 64.009 36.731 63.879 36.976C63.749 37.221 63.569 37.413 63.339 37.55L63.476 37.482ZM90.157 34.31C89.743 34.724 89.287 35.168 88.79 35.643C88.292 36.118 87.744 36.563 87.147 36.976C86.546 37.3916 85.898 37.735 85.217 37.999C84.505 38.2712 83.749 38.4075 82.987 38.401C80.904 38.401 78.985 38.011 77.23 37.229C75.519 36.4783 73.979 35.3876 72.703 34.023C71.439 32.667 70.451 31.07 69.739 29.231C69.026 27.393 68.67 25.417 68.67 23.302C68.67 21.172 69.026 19.192 69.739 17.362C70.451 15.532 71.439 13.938 72.703 12.582C73.977 11.2187 75.518 10.1316 77.23 9.388C78.985 8.614 80.904 8.227 82.987 8.227C83.83 8.227 84.6 8.35 85.297 8.595C85.969 8.82801 86.61 9.14448 87.204 9.537C87.779 9.92 88.307 10.353 88.79 10.835C89.272 11.318 89.728 11.789 90.157 12.249V1.746C90.157 1.256 90.307 0.843 90.605 0.506C90.904 0.168 91.352 0 91.95 0H97.12C97.32 0 97.53 0.042 97.752 0.126C97.974 0.211 98.177 0.329 98.362 0.483C98.545 0.636 98.694 0.82 98.809 1.034C98.924 1.249 98.982 1.486 98.982 1.746V36.103C98.982 37.283 98.362 37.873 97.12 37.873H92.616C92.31 37.873 92.072 37.833 91.904 37.757C91.737 37.6821 91.591 37.5678 91.478 37.424C91.35 37.2553 91.245 37.07 91.168 36.873C91.059 36.6136 90.945 36.3568 90.824 36.103L90.157 34.31ZM76.943 23.302C76.935 24.2684 77.094 25.2289 77.414 26.141C77.728 27.021 78.176 27.784 78.759 28.427C79.347 29.0751 80.063 29.5952 80.861 29.955C81.681 30.331 82.589 30.518 83.585 30.518C84.565 30.518 85.488 30.342 86.354 29.99C87.195 29.6531 87.963 29.1574 88.617 28.53C89.266 27.9017 89.792 27.1576 90.169 26.336C90.559 25.493 90.778 24.589 90.824 23.624V23.302C90.827 22.3403 90.639 21.3876 90.272 20.499C89.915 19.6279 89.397 18.8325 88.744 18.155C88.089 17.4783 87.308 16.9359 86.446 16.558C85.544 16.163 84.569 15.9633 83.585 15.972C82.589 15.972 81.681 16.167 80.861 16.558C80.041 16.948 79.341 17.481 78.759 18.155C78.167 18.8449 77.711 19.6401 77.414 20.499C77.098 21.3996 76.939 22.3477 76.944 23.302H76.943ZM125.663 34.31C125.249 34.724 124.793 35.168 124.295 35.643C123.797 36.118 123.249 36.563 122.652 36.976C122.051 37.3916 121.403 37.735 120.722 37.999C120.01 38.2712 119.254 38.4075 118.492 38.401C116.409 38.401 114.49 38.011 112.736 37.229C111.024 36.4784 109.484 35.3877 108.208 34.023C106.945 32.667 105.956 31.07 105.244 29.231C104.532 27.393 104.175 25.417 104.175 23.302C104.175 21.172 104.532 19.192 105.244 17.362C105.956 15.532 106.944 13.938 108.208 12.582C109.482 11.2186 111.024 10.1315 112.736 9.388C114.49 8.614 116.409 8.227 118.492 8.227C119.335 8.227 120.105 8.35 120.802 8.595C121.474 8.82801 122.115 9.14448 122.709 9.537C123.284 9.92 123.812 10.353 124.295 10.835C124.778 11.318 125.233 11.789 125.662 12.249V1.746C125.662 1.256 125.812 0.843 126.11 0.506C126.41 0.168 126.857 0 127.455 0H132.625C132.825 0 133.035 0.042 133.257 0.126C133.48 0.211 133.683 0.329 133.867 0.483C134.05 0.636 134.2 0.82 134.315 1.034C134.429 1.249 134.487 1.486 134.487 1.746V36.103C134.487 37.283 133.867 37.873 132.625 37.873H128.121C127.815 37.873 127.577 37.833 127.409 37.757C127.242 37.682 127.096 37.5677 126.984 37.424C126.856 37.2553 126.751 37.07 126.674 36.873C126.565 36.6135 126.45 36.3568 126.329 36.103L125.662 34.31H125.663ZM112.448 23.302C112.44 24.2684 112.599 25.2289 112.919 26.141C113.234 27.021 113.682 27.784 114.264 28.427C114.852 29.0752 115.568 29.5953 116.367 29.955C117.187 30.331 118.094 30.518 119.09 30.518C120.07 30.518 120.993 30.342 121.859 29.99C122.7 29.6532 123.469 29.1575 124.123 28.53C124.771 27.9015 125.297 27.1574 125.673 26.336C126.064 25.493 126.283 24.589 126.329 23.624V23.302C126.332 22.3403 126.144 21.3876 125.777 20.499C125.42 19.6279 124.902 18.8325 124.249 18.155C123.594 17.4783 122.813 16.9359 121.951 16.558C121.049 16.163 120.074 15.9633 119.09 15.972C118.094 15.972 117.186 16.167 116.367 16.558C115.547 16.948 114.846 17.481 114.264 18.155C113.672 18.8449 113.216 19.6401 112.919 20.499C112.603 21.3996 112.444 22.3477 112.449 23.302H112.448ZM140.601 1.769C140.601 1.279 140.723 0.866 140.968 0.529C141.214 0.191 141.635 0.023 142.232 0.023H147.862C148.016 0.023 148.177 0.065 148.345 0.149C148.521 0.239587 148.681 0.360413 148.816 0.506C148.962 0.659 149.084 0.843 149.184 1.057C149.284 1.272 149.334 1.509 149.334 1.769V36.103C149.334 36.685 149.169 37.125 148.839 37.424C148.51 37.723 148.085 37.872 147.564 37.872H142.232C141.635 37.872 141.214 37.722 140.968 37.424C140.723 37.125 140.601 36.684 140.601 36.103V1.769ZM179.301 34.379C177.968 35.6099 176.427 36.5942 174.751 37.286C173.052 37.9858 171.232 38.3413 169.396 38.332C167.296 38.332 165.313 37.949 163.444 37.182C161.617 36.4437 159.948 35.3637 158.526 34C157.109 32.6338 155.97 31.0066 155.171 29.208C154.343 27.37 153.93 25.371 153.93 23.21C153.93 21.862 154.094 20.556 154.424 19.292C154.742 18.0553 155.213 16.8628 155.826 15.742C156.431 14.6388 157.172 13.6158 158.032 12.697C158.889 11.7766 159.867 10.9764 160.939 10.318C162.029 9.65115 163.204 9.13322 164.432 8.778C165.723 8.40554 167.062 8.21999 168.407 8.227C169.679 8.227 170.912 8.396 172.107 8.733C173.302 9.07 174.425 9.545 175.474 10.157C176.524 10.77 177.484 11.506 178.358 12.364C179.219 13.2077 179.976 14.153 180.61 15.179C181.238 16.1976 181.729 17.2948 182.07 18.442C182.414 19.599 182.587 20.79 182.587 22.015C182.587 22.812 182.575 23.463 182.552 23.969C182.529 24.474 182.41 24.877 182.196 25.175C181.981 25.475 181.626 25.681 181.127 25.795C180.629 25.911 179.897 25.968 178.933 25.968H162.387C162.54 26.948 162.85 27.768 163.317 28.428C163.749 29.0527 164.299 29.587 164.937 30.001C165.55 30.392 166.201 30.671 166.891 30.841C167.529 31.0028 168.185 31.0874 168.844 31.093C169.396 31.093 169.962 31.035 170.544 30.921C171.117 30.8084 171.682 30.6547 172.234 30.461C172.749 30.2817 173.249 30.0586 173.727 29.794C174.179 29.542 174.543 29.277 174.819 29.002C175.064 28.802 175.275 28.653 175.451 28.553C175.627 28.453 175.815 28.404 176.014 28.404C176.214 28.404 176.416 28.474 176.624 28.611C176.875 28.7871 177.11 28.987 177.324 29.208L179.76 31.966C179.928 32.166 180.036 32.346 180.082 32.506C180.128 32.667 180.151 32.832 180.151 33C180.151 33.307 180.066 33.571 179.898 33.793C179.728 34.0163 179.526 34.2137 179.3 34.379H179.301ZM168.247 15.236C167.649 15.236 167.071 15.355 166.512 15.592C165.944 15.8342 165.414 16.1554 164.937 16.546C164.447 16.944 164.007 17.396 163.616 17.902C163.242 18.3791 162.923 18.8955 162.662 19.442H174.405C174.097 18.8658 173.747 18.3127 173.36 17.787C172.991 17.2882 172.558 16.84 172.073 16.454C171.576 16.0634 171.016 15.7604 170.418 15.558C169.798 15.343 169.074 15.236 168.247 15.236Z" fill="white"/>
</svg>
