<svg width="800" height="800" viewBox="0 0 800 800" fill="none" xmlns="http://www.w3.org/2000/svg">
<path d="M400.175 285.175C336.575 285.175 285.275 336.475 285.275 400.075C285.275 463.675 336.575 514.975 400.175 514.975C463.775 514.975 515.075 463.675 515.075 400.075C515.075 336.475 463.775 285.175 400.175 285.175ZM400.175 474.775C359.075 474.775 325.475 441.275 325.475 400.075C325.475 358.875 358.975 325.375 400.175 325.375C441.375 325.375 474.875 358.875 474.875 400.075C474.875 441.275 441.275 474.775 400.175 474.775ZM546.575 280.475C546.575 295.375 534.575 307.275 519.775 307.275C504.875 307.275 492.975 295.275 492.975 280.475C492.975 265.675 504.975 253.675 519.775 253.675C534.575 253.675 546.575 265.675 546.575 280.475ZM622.675 307.675C620.975 271.775 612.775 239.975 586.475 213.775C560.275 187.575 528.475 179.375 492.575 177.575C455.575 175.475 344.675 175.475 307.675 177.575C271.875 179.275 240.075 187.475 213.775 213.675C187.475 239.875 179.375 271.675 177.575 307.575C175.475 344.575 175.475 455.475 177.575 492.475C179.275 528.375 187.475 560.175 213.775 586.375C240.075 612.575 271.775 620.775 307.675 622.575C344.675 624.675 455.575 624.675 492.575 622.575C528.475 620.875 560.275 612.675 586.475 586.375C612.675 560.175 620.875 528.375 622.675 492.475C624.775 455.475 624.775 344.675 622.675 307.675ZM574.875 532.175C567.075 551.775 551.975 566.875 532.275 574.775C502.775 586.475 432.775 583.775 400.175 583.775C367.575 583.775 297.475 586.375 268.075 574.775C248.475 566.975 233.375 551.875 225.475 532.175C213.775 502.675 216.475 432.675 216.475 400.075C216.475 367.475 213.875 297.375 225.475 267.975C233.275 248.375 248.375 233.275 268.075 225.375C297.575 213.675 367.575 216.375 400.175 216.375C432.775 216.375 502.875 213.775 532.275 225.375C551.875 233.175 566.975 248.275 574.875 267.975C586.575 297.475 583.875 367.475 583.875 400.075C583.875 432.675 586.575 502.775 574.875 532.175Z" fill="white"/>
<circle cx="400" cy="400" r="387.5" stroke="white" stroke-width="25"/>
<circle cx="400" cy="400" r="387.5" stroke="white" stroke-width="25"/>
</svg>
