<svg width="45" height="39" viewBox="0 0 45 39" fill="none" xmlns="http://www.w3.org/2000/svg">
<path d="M27.9577 0.640022C20.2327 0.636022 12.1727 2.37602 4.03768 4.63302C3.00468 4.84102 1.99668 5.51702 1.46368 6.35302C0.973684 7.14102 0.795684 7.93202 0.642684 8.76102C-0.147316 13.189 -0.0513159 17.537 0.112684 22.355C0.148684 23.458 0.312684 24.765 0.827684 25.56C1.36568 26.363 2.28768 26.873 3.38868 27.04C4.79529 27.2463 6.2063 27.4214 7.62068 27.565L7.30868 36.263C7.26068 36.955 7.59868 37.53 8.01868 37.861C8.39468 38.147 8.81368 38.274 9.24368 38.306C10.1037 38.371 11.1127 38.003 11.6137 37.049C13.8087 32.825 15.1857 30.96 17.9307 28.154C25.0887 28.33 31.3377 27.932 38.4127 27.409C40.9137 27.344 42.6307 25.299 43.0847 23.666C44.4417 19.434 44.6527 14.21 44.7967 8.92902C44.8577 6.83602 44.1317 4.78102 42.8467 3.69502C41.6247 2.70402 40.1447 2.34502 38.7887 1.97702C35.0217 1.12402 31.2537 0.666022 27.9577 0.640022ZM38.2477 3.95002C39.6057 4.31902 40.8027 4.67402 41.5577 5.28702C42.8177 6.62602 42.7757 7.51702 42.7577 8.96202C42.6157 14.084 42.3697 19.055 41.2137 22.822C40.7157 24.227 39.8477 25.227 38.2077 25.378C30.9997 25.911 24.7457 26.323 17.5007 26.117C17.3596 26.1125 17.2191 26.137 17.0879 26.1889C16.9566 26.2409 16.8375 26.3192 16.7377 26.419C13.6937 29.493 12.1367 31.629 9.81668 36.095C9.76268 36.197 9.64568 36.259 9.50168 36.27C9.40468 36.265 9.36568 36.19 9.35968 36.122L9.67368 26.69C9.69268 26.181 9.27268 25.695 8.76668 25.64C7.0748 25.4784 5.38753 25.2717 3.70668 25.02C2.98068 24.909 2.71268 24.71 2.51368 24.414C2.16768 23.589 2.17568 23.079 2.14868 22.286C1.98668 17.511 1.90668 13.338 2.63968 9.18602C2.70768 8.57202 2.93768 7.94402 3.18168 7.41902C3.58568 6.78702 4.20468 6.69402 4.82568 6.52202C12.7817 4.32502 20.5657 2.68202 27.8937 2.67702C31.4857 2.80702 35.2577 3.16702 38.2477 3.95002ZM10.7687 12.04C9.67268 13.353 9.78168 15.136 10.6287 16.33C11.0707 16.955 11.7607 17.458 12.6007 17.572C13.6917 17.662 14.3837 17.22 15.1307 16.712C16.4837 15.536 16.6207 13.484 15.5917 12.002C15.0677 11.247 14.2297 10.794 13.3737 10.762C12.2017 10.774 11.4057 11.297 10.7687 12.039V12.04ZM22.6247 10.968C21.5327 11.003 20.6497 11.759 20.1107 12.575C19.4937 13.508 19.1337 14.676 19.6327 15.821C20.5927 18.024 23.9097 17.997 25.2327 15.758C25.8427 14.726 25.6867 13.553 25.2327 12.702C24.7807 11.852 24.0967 11.159 23.1017 11C22.9441 10.9741 22.7843 10.9634 22.6247 10.968ZM32.2497 11.175C31.9097 11.167 31.5597 11.199 31.2317 11.286C29.9197 11.636 28.8027 12.99 28.9717 14.723C29.0577 15.595 29.4587 16.445 30.1817 17.031C30.9047 17.616 31.9547 17.878 33.0617 17.651C34.3337 17.391 35.1217 16.366 35.3847 15.376C35.6477 14.386 35.5817 13.377 34.9707 12.559C34.6528 12.1363 34.2424 11.7918 33.771 11.5519C33.2996 11.3121 32.7796 11.1831 32.2507 11.175H32.2497ZM13.2847 12.798C13.5297 12.8 13.7227 12.878 13.9217 13.164C14.3667 13.806 14.2427 14.779 13.7937 15.169C13.3467 15.559 13.0677 15.593 12.8717 15.567C12.6757 15.54 12.4767 15.405 12.2987 15.153C11.9587 14.673 11.8587 13.897 12.3057 13.343C12.5437 13.027 12.9807 12.83 13.2857 12.798H13.2847ZM22.7677 13.021C22.8057 13.027 23.2317 13.274 23.4357 13.657C23.6397 14.04 23.6777 14.396 23.4837 14.723C22.9067 15.699 21.6797 15.435 21.4937 15.01C21.4237 14.848 21.4767 14.197 21.8137 13.69C22.1487 13.181 22.5707 12.99 22.7677 13.02V13.021ZM33.3317 13.769C33.3937 13.852 33.5447 14.409 33.4277 14.851C33.3097 15.293 33.1177 15.566 32.6477 15.662C32.0457 15.786 31.7077 15.662 31.4547 15.455C31.2007 15.25 31.0297 14.903 30.9927 14.532C30.9027 13.612 31.2327 13.399 31.7567 13.259C32.3667 13.109 33.0567 13.371 33.3317 13.769Z" fill="white"/>
</svg>
