<svg width="800" height="800" viewBox="0 0 800 800" fill="none" xmlns="http://www.w3.org/2000/svg">
<path d="M603.37 295.634C603.695 300.182 603.695 304.731 603.695 309.279C603.695 447.999 498.112 607.837 305.137 607.837C245.685 607.837 190.457 590.618 144 560.731C152.447 561.705 160.568 562.03 169.34 562.03C218.395 562.03 263.553 545.462 299.614 517.198C253.482 516.223 214.822 486.01 201.502 444.426C208 445.4 214.497 446.05 221.32 446.05C230.741 446.05 240.163 444.75 248.934 442.477C200.853 432.73 164.791 390.497 164.791 339.492V338.193C178.76 345.99 195.005 350.863 212.222 351.512C183.958 332.669 165.441 300.507 165.441 264.121C165.441 244.629 170.638 226.761 179.735 211.167C231.39 274.842 309.035 316.425 396.1 320.974C394.476 313.177 393.501 305.056 393.501 296.934C393.501 239.106 440.283 192 498.435 192C528.648 192 555.937 204.67 575.105 225.137C598.82 220.589 621.561 211.817 641.704 199.797C633.906 224.163 617.338 244.63 595.572 257.624C616.689 255.351 637.156 249.502 655.998 241.381C641.706 262.172 623.837 280.689 603.37 295.634Z" fill="white"/>
<circle cx="400" cy="400" r="387.5" stroke="white" stroke-width="25"/>
</svg>
